<mxfile host="app.diagrams.net" modified="2023-09-27T14:04:55.690Z" agent="Mozilla/5.0 (Windows NT 10.0; Win64; x64; rv:109.0) Gecko/20100101 Firefox/118.0" etag="HIP5q3dn9jMW14hW8xCp" version="21.8.2" type="device">
  <diagram name="Страница — 1" id="G_UWMZKsSvTpHEAIXXd3">
    <mxGraphModel dx="989" dy="514" grid="1" gridSize="10" guides="1" tooltips="1" connect="1" arrows="1" fold="1" page="1" pageScale="1" pageWidth="827" pageHeight="1169" math="0" shadow="0">
      <root>
        <mxCell id="0" />
        <mxCell id="1" parent="0" />
        <mxCell id="3-0UWtALttct4Q2PQhee-3" value="" style="rounded=0;whiteSpace=wrap;html=1;" vertex="1" parent="1">
          <mxGeometry x="160" y="280" width="600" height="480" as="geometry" />
        </mxCell>
        <mxCell id="3-0UWtALttct4Q2PQhee-4" value="" style="endArrow=none;html=1;rounded=0;entryX=0.402;entryY=-0.002;entryDx=0;entryDy=0;exitX=0.4;exitY=0.998;exitDx=0;exitDy=0;entryPerimeter=0;exitPerimeter=0;" edge="1" parent="1" source="3-0UWtALttct4Q2PQhee-3" target="3-0UWtALttct4Q2PQhee-3">
          <mxGeometry width="50" height="50" relative="1" as="geometry">
            <mxPoint x="390" y="500" as="sourcePoint" />
            <mxPoint x="440" y="450" as="targetPoint" />
          </mxGeometry>
        </mxCell>
        <mxCell id="3-0UWtALttct4Q2PQhee-5" value="Активности" style="text;html=1;strokeColor=none;fillColor=none;align=center;verticalAlign=middle;whiteSpace=wrap;rounded=0;" vertex="1" parent="1">
          <mxGeometry x="250" y="280" width="60" height="30" as="geometry" />
        </mxCell>
        <mxCell id="3-0UWtALttct4Q2PQhee-6" value="Решения" style="text;html=1;strokeColor=none;fillColor=none;align=center;verticalAlign=middle;whiteSpace=wrap;rounded=0;" vertex="1" parent="1">
          <mxGeometry x="550" y="280" width="60" height="30" as="geometry" />
        </mxCell>
        <mxCell id="3-0UWtALttct4Q2PQhee-7" value="" style="endArrow=none;html=1;rounded=0;exitX=0;exitY=0.083;exitDx=0;exitDy=0;exitPerimeter=0;entryX=1;entryY=0.082;entryDx=0;entryDy=0;entryPerimeter=0;" edge="1" parent="1" source="3-0UWtALttct4Q2PQhee-3" target="3-0UWtALttct4Q2PQhee-3">
          <mxGeometry width="50" height="50" relative="1" as="geometry">
            <mxPoint x="390" y="500" as="sourcePoint" />
            <mxPoint x="440" y="450" as="targetPoint" />
          </mxGeometry>
        </mxCell>
        <mxCell id="3-0UWtALttct4Q2PQhee-8" value="Ввод данных" style="rounded=1;whiteSpace=wrap;html=1;" vertex="1" parent="1">
          <mxGeometry x="205" y="360" width="150" height="40" as="geometry" />
        </mxCell>
        <mxCell id="3-0UWtALttct4Q2PQhee-9" value="Проверка данных" style="rounded=1;whiteSpace=wrap;html=1;" vertex="1" parent="1">
          <mxGeometry x="180" y="440" width="200" height="40" as="geometry" />
        </mxCell>
        <mxCell id="3-0UWtALttct4Q2PQhee-12" value="Авторизация " style="rounded=1;whiteSpace=wrap;html=1;" vertex="1" parent="1">
          <mxGeometry x="180" y="530" width="200" height="40" as="geometry" />
        </mxCell>
        <mxCell id="3-0UWtALttct4Q2PQhee-13" value="Вывод данных" style="rounded=1;whiteSpace=wrap;html=1;" vertex="1" parent="1">
          <mxGeometry x="180" y="670" width="200" height="40" as="geometry" />
        </mxCell>
        <mxCell id="3-0UWtALttct4Q2PQhee-16" value="Ошибка аутентификации " style="rounded=1;whiteSpace=wrap;html=1;" vertex="1" parent="1">
          <mxGeometry x="560" y="670" width="200" height="40" as="geometry" />
        </mxCell>
        <mxCell id="3-0UWtALttct4Q2PQhee-17" value="" style="endArrow=classic;html=1;rounded=0;entryX=0.5;entryY=0;entryDx=0;entryDy=0;exitX=0.5;exitY=1;exitDx=0;exitDy=0;" edge="1" parent="1" source="3-0UWtALttct4Q2PQhee-8" target="3-0UWtALttct4Q2PQhee-9">
          <mxGeometry width="50" height="50" relative="1" as="geometry">
            <mxPoint x="420" y="530" as="sourcePoint" />
            <mxPoint x="470" y="480" as="targetPoint" />
          </mxGeometry>
        </mxCell>
        <mxCell id="3-0UWtALttct4Q2PQhee-18" value="" style="endArrow=classic;html=1;rounded=0;exitX=1;exitY=0.5;exitDx=0;exitDy=0;entryX=0;entryY=0.5;entryDx=0;entryDy=0;" edge="1" parent="1" source="3-0UWtALttct4Q2PQhee-9">
          <mxGeometry width="50" height="50" relative="1" as="geometry">
            <mxPoint x="420" y="530" as="sourcePoint" />
            <mxPoint x="489.9999999999998" y="460" as="targetPoint" />
          </mxGeometry>
        </mxCell>
        <mxCell id="3-0UWtALttct4Q2PQhee-19" value="" style="endArrow=classic;html=1;rounded=0;exitX=0.5;exitY=1;exitDx=0;exitDy=0;entryX=1;entryY=0.5;entryDx=0;entryDy=0;" edge="1" parent="1" target="3-0UWtALttct4Q2PQhee-12">
          <mxGeometry width="50" height="50" relative="1" as="geometry">
            <mxPoint x="564.9999999999998" y="480" as="sourcePoint" />
            <mxPoint x="470" y="480" as="targetPoint" />
            <Array as="points">
              <mxPoint x="565" y="550" />
            </Array>
          </mxGeometry>
        </mxCell>
        <mxCell id="3-0UWtALttct4Q2PQhee-24" value="Да" style="edgeLabel;html=1;align=center;verticalAlign=middle;resizable=0;points=[];" vertex="1" connectable="0" parent="3-0UWtALttct4Q2PQhee-19">
          <mxGeometry x="-0.6392" y="2" relative="1" as="geometry">
            <mxPoint as="offset" />
          </mxGeometry>
        </mxCell>
        <mxCell id="3-0UWtALttct4Q2PQhee-20" value="&#xa;Правильные данные?&#xa;&#xa;" style="rhombus;whiteSpace=wrap;html=1;direction=south;" vertex="1" parent="1">
          <mxGeometry x="490" y="420" width="150" height="80" as="geometry" />
        </mxCell>
        <mxCell id="3-0UWtALttct4Q2PQhee-21" value="" style="endArrow=classic;html=1;rounded=0;entryX=0.5;entryY=0;entryDx=0;entryDy=0;exitX=0.5;exitY=0;exitDx=0;exitDy=0;" edge="1" parent="1" source="3-0UWtALttct4Q2PQhee-20" target="3-0UWtALttct4Q2PQhee-16">
          <mxGeometry width="50" height="50" relative="1" as="geometry">
            <mxPoint x="420" y="530" as="sourcePoint" />
            <mxPoint x="470" y="480" as="targetPoint" />
            <Array as="points">
              <mxPoint x="660" y="460" />
            </Array>
          </mxGeometry>
        </mxCell>
        <mxCell id="3-0UWtALttct4Q2PQhee-25" value="Text" style="edgeLabel;html=1;align=center;verticalAlign=middle;resizable=0;points=[];" vertex="1" connectable="0" parent="3-0UWtALttct4Q2PQhee-21">
          <mxGeometry x="-0.1322" y="-1" relative="1" as="geometry">
            <mxPoint as="offset" />
          </mxGeometry>
        </mxCell>
        <mxCell id="3-0UWtALttct4Q2PQhee-22" value="" style="endArrow=classic;html=1;rounded=0;entryX=1;entryY=0.5;entryDx=0;entryDy=0;exitX=0.75;exitY=0;exitDx=0;exitDy=0;" edge="1" parent="1" source="3-0UWtALttct4Q2PQhee-16" target="3-0UWtALttct4Q2PQhee-8">
          <mxGeometry width="50" height="50" relative="1" as="geometry">
            <mxPoint x="420" y="530" as="sourcePoint" />
            <mxPoint x="470" y="480" as="targetPoint" />
            <Array as="points">
              <mxPoint x="710" y="380" />
            </Array>
          </mxGeometry>
        </mxCell>
        <mxCell id="3-0UWtALttct4Q2PQhee-23" value="" style="endArrow=classic;html=1;rounded=0;entryX=0.5;entryY=0;entryDx=0;entryDy=0;exitX=0.5;exitY=1;exitDx=0;exitDy=0;" edge="1" parent="1" source="3-0UWtALttct4Q2PQhee-12" target="3-0UWtALttct4Q2PQhee-13">
          <mxGeometry width="50" height="50" relative="1" as="geometry">
            <mxPoint x="420" y="530" as="sourcePoint" />
            <mxPoint x="470" y="480" as="targetPoint" />
          </mxGeometry>
        </mxCell>
      </root>
    </mxGraphModel>
  </diagram>
</mxfile>
